<svg width="20" height="20" viewBox="0 0 20 20" fill="none" xmlns="http://www.w3.org/2000/svg">
<g clip-path="url(#clip0_107_3940)">
<path d="M10.0001 9.5C7.79098 9.5 6.00012 7.70914 6.00011 5.5C6.00011 3.29087 7.79097 1.5 10.0001 1.5C12.2092 1.5 14.0001 3.29086 14.0001 5.5C14.0001 7.70913 12.2092 9.49999 10.0001 9.5Z" fill=" "/>
<path d="M4.5 19C3.11929 19 2 17.8807 2 16.5V15.8C2 15.1524 2.146 14.557 2.438 14.0137C2.72933 13.4712 3.11667 13.0571 3.6 12.7714C4.63333 12.181 5.68333 11.7379 6.75 11.4423C7.81667 11.1474 8.9 11 10 11C11.1 11 12.1833 11.1474 13.25 11.4423C14.3167 11.7379 15.3667 12.181 16.4 12.7714C16.8833 13.0571 17.2707 13.4712 17.562 14.0137C17.854 14.557 18 15.1524 18 15.8V16.5C18 17.8807 16.8807 19 15.5 19H4.5Z" fill=" "/>
</g>
<defs>
<clipPath id="clip0_107_3940">
<rect width="20" height="20" fill="white"/>
</clipPath>
</defs>
</svg>
