<svg width="20" height="20" viewBox="0 0 20 20" fill="none" xmlns="http://www.w3.org/2000/svg">
<g clip-path="url(#clip0_107_3854)">
<path d="M9.08883 0.308463C9.62666 -0.102821 10.3733 -0.102821 10.9112 0.308463L19.4112 6.80846C19.7823 7.09227 20 7.53279 20 8V18.5C20 19.3284 19.3284 20 18.5 20H14C13.1716 20 12.5 19.3284 12.5 18.5V13H7.49999L7.5 18.5C7.5 18.8978 7.34197 19.2794 7.06066 19.5607C6.77936 19.842 6.39783 20 6 20H1.50001C0.671588 20 1.5378e-05 19.3284 1.43051e-05 18.5L0 8C0 7.5328 0.217696 7.09227 0.588825 6.80846L9.08883 0.308463Z" fill=" "/>
</g>
<defs>
<clipPath id="clip0_107_3854">
<rect width="20" height="20" fill="white"/>
</clipPath>
</defs>
</svg>
