<svg width="20" height="20" viewBox="0 0 20 20" fill="none" xmlns="http://www.w3.org/2000/svg">
<path d="M3.14286 17.7778C3.14286 19 4.17143 20 5.42857 20H14.5714C15.8286 20 16.8571 19 16.8571 17.7778V4.44444H3.14286V17.7778ZM6.76571 10.6556C6.55203 10.4478 6.43198 10.166 6.43198 9.87222C6.43198 9.57842 6.55203 9.29664 6.76571 9.08889C6.9794 8.88114 7.26923 8.76442 7.57143 8.76442C7.87363 8.76442 8.16345 8.88114 8.37714 9.08889L10 10.6556L11.6114 9.08889C11.8251 8.88114 12.1149 8.76442 12.4171 8.76442C12.7193 8.76442 13.0092 8.88114 13.2229 9.08889C13.4365 9.29664 13.5566 9.57842 13.5566 9.87222C13.5566 10.166 13.4365 10.4478 13.2229 10.6556L11.6114 12.2222L13.2229 13.7889C13.3287 13.8918 13.4126 14.0139 13.4699 14.1483C13.5271 14.2827 13.5566 14.4267 13.5566 14.5722C13.5566 14.7177 13.5271 14.8618 13.4699 14.9962C13.4126 15.1306 13.3287 15.2527 13.2229 15.3556C13.117 15.4584 12.9914 15.54 12.8532 15.5957C12.7149 15.6514 12.5668 15.68 12.4171 15.68C12.2675 15.68 12.1193 15.6514 11.9811 15.5957C11.8428 15.54 11.7172 15.4584 11.6114 15.3556L10 13.7889L8.38857 15.3556C8.28276 15.4584 8.15715 15.54 8.01891 15.5957C7.88066 15.6514 7.73249 15.68 7.58286 15.68C7.43322 15.68 7.28505 15.6514 7.14681 15.5957C7.00856 15.54 6.88295 15.4584 6.77714 15.3556C6.67134 15.2527 6.5874 15.1306 6.53014 14.9962C6.47288 14.8618 6.44341 14.7177 6.44341 14.5722C6.44341 14.4267 6.47288 14.2827 6.53014 14.1483C6.5874 14.0139 6.67134 13.8918 6.77714 13.7889L8.38857 12.2222L6.76571 10.6556ZM16.8571 1.11111H14L13.1886 0.322222C12.9829 0.122222 12.6857 0 12.3886 0H7.61143C7.31429 0 7.01714 0.122222 6.81143 0.322222L6 1.11111H3.14286C2.51429 1.11111 2 1.61111 2 2.22222C2 2.83333 2.51429 3.33333 3.14286 3.33333H16.8571C17.4857 3.33333 18 2.83333 18 2.22222C18 1.61111 17.4857 1.11111 16.8571 1.11111Z" fill=" "/>
</svg>
