<svg width="20" height="20" viewBox="0 0 20 20" fill="none" xmlns="http://www.w3.org/2000/svg">
<path fill-rule="evenodd" clip-rule="evenodd" d="M1.12352 2.9935C1.82006 2.3434 2.73702 2 3.66667 2H8C9.10457 2 10 2.89543 10 4C10 5.10457 9.10457 6 8 6H4V16H15V12.5C15 11.3954 15.8954 10.5 17 10.5C18.1046 10.5 19 11.3954 19 12.5V16.4444C19 17.4337 18.5777 18.352 17.8765 19.0065C17.1799 19.6566 16.263 20 15.3333 20H3.66667C2.73702 20 1.82006 19.6566 1.12352 19.0065C0.422314 18.352 0 17.4337 0 16.4444V5.55556C0 4.56629 0.422313 3.64796 1.12352 2.9935Z" fill=" "/>
<path d="M15.4697 2.46967C15.7626 2.17678 16.2375 2.17678 16.5303 2.46967L18.5303 4.46967C18.8232 4.76256 18.8232 5.23744 18.5303 5.53033L11.5304 12.5303C11.448 12.6127 11.3476 12.6747 11.2372 12.7115L8.23719 13.7115C7.96769 13.8013 7.67056 13.7312 7.46969 13.5303C7.26882 13.3295 7.19867 13.0323 7.28851 12.7628L8.28851 9.76283C8.32533 9.65237 8.38736 9.552 8.46969 9.46967L15.4697 2.46967Z" fill=" "/>
</svg>
