<svg width="20" height="20" viewBox="0 0 20 20" fill="none" xmlns="http://www.w3.org/2000/svg">
<g clip-path="url(#clip0_107_3900)">
<path fill-rule="evenodd" clip-rule="evenodd" d="M0 3.5C0 2.39543 0.89543 1.5 2 1.5L18 1.5C19.1046 1.5 20 2.39543 20 3.5C20 4.60457 19.1046 5.5 18 5.5L2 5.5C0.89543 5.5 0 4.60457 0 3.5Z" fill=" "/>
<path fill-rule="evenodd" clip-rule="evenodd" d="M0 16.5C0 15.3954 0.89543 14.5 2 14.5L18 14.5C19.1046 14.5 20 15.3954 20 16.5C20 17.6046 19.1046 18.5 18 18.5L2 18.5C0.89543 18.5 0 17.6046 0 16.5Z" fill=" "/>
<path fill-rule="evenodd" clip-rule="evenodd" d="M0 10C0 8.89543 0.89543 8 2 8L18 8C19.1046 8 20 8.89543 20 10C20 11.1046 19.1046 12 18 12L2 12C0.89543 12 0 11.1046 0 10Z" fill=" "/>
</g>
<defs>
<clipPath id="clip0_107_3900">
<rect width="20" height="20" fill="white"/>
</clipPath>
</defs>
</svg>
