<svg width="20" height="20" viewBox="0 0 20 20" fill="none" xmlns="http://www.w3.org/2000/svg">
<path fill-rule="evenodd" clip-rule="evenodd" d="M0.585786 0.585786C1.36683 -0.195262 2.63317 -0.195262 3.41421 0.585786L19.4142 16.5858C20.1953 17.3668 20.1953 18.6332 19.4142 19.4142C18.6332 20.1953 17.3668 20.1953 16.5858 19.4142L0.585786 3.41421C-0.195262 2.63317 -0.195262 1.36683 0.585786 0.585786ZM19.4142 0.585786C20.1953 1.36683 20.1953 2.63317 19.4142 3.41421L15.4142 7.41421C14.6332 8.19526 13.3668 8.19526 12.5858 7.41421C11.8047 6.63316 11.8047 5.36684 12.5858 4.58579L16.5858 0.585786C17.3668 -0.195262 18.6332 -0.195262 19.4142 0.585786ZM7.41421 12.5858C8.19526 13.3668 8.19526 14.6332 7.41421 15.4142L3.41421 19.4142C2.63317 20.1953 1.36683 20.1953 0.585786 19.4142C-0.195262 18.6332 -0.195262 17.3668 0.585786 16.5858L4.58579 12.5858C5.36684 11.8047 6.63316 11.8047 7.41421 12.5858Z" fill=" "/>
<path fill-rule="evenodd" clip-rule="evenodd" d="M19.074 12.6142C19.6345 12.8464 20 13.3933 20 14.0001L19.9998 18.5002C19.9998 19.3286 19.3283 20.0001 18.4998 20.0001H14C13.3933 20.0001 12.8463 19.6347 12.6142 19.0742C12.382 18.5137 12.5103 17.8685 12.9393 17.4395L17.4393 12.9394C17.8683 12.5104 18.5135 12.382 19.074 12.6142Z" fill=" "/>
<path fill-rule="evenodd" clip-rule="evenodd" d="M12.6142 0.925997C12.8464 0.365477 13.3933 1.49713e-05 14.0001 3.10293e-05L18.5002 0.000150136C19.3286 0.000172221 20.0001 0.671739 20.0001 1.50015L20.0001 6.00003C20.0001 6.60672 19.6347 7.15367 19.0742 7.38585C18.5137 7.61802 17.8685 7.48969 17.4395 7.06071L12.9394 2.56071C12.5104 2.13171 12.382 1.48652 12.6142 0.925997Z" fill=" "/>
</svg>
