<svg width="20" height="20" viewBox="0 0 20 20" fill="none" xmlns="http://www.w3.org/2000/svg">
<g clip-path="url(#clip0_107_4139)">
<path fill-rule="evenodd" clip-rule="evenodd" d="M6.22231 1.14977C7.20248 0.430976 8.45637 0 10 0C15.3176 0 17.9784 4.9865 15.7481 8.33205C14.5754 10.0911 12.6566 10.8691 11.5 11.2046L11.5 12.5C11.5 13.3284 10.8284 14 9.99998 14C9.17156 14 8.49999 13.3284 8.5 12.5L8.50002 10.8904C8.50003 9.60594 9.43677 8.64874 10.4895 8.37166C11.4142 8.12826 12.6216 7.61341 13.2519 6.66795C13.8787 5.72779 13.4323 3 10 3C9.04361 3 8.42248 3.25652 7.9964 3.56898C7.5536 3.8937 7.22761 4.34912 6.99054 4.8707C6.75239 5.39463 6.62586 5.93852 6.56119 6.36532C6.52943 6.57494 6.51402 6.74674 6.50661 6.86086C6.50292 6.91767 6.50127 6.95946 6.50053 6.98365L6.49999 7.0062L6.49999 7.00435L6.5 7.00241L6.5 7.00126C6.5 7.00311 6.5 7.00435 6.49999 7.0062C6.49999 7.00644 6.49999 7.00603 6.49999 7.0062C6.49632 7.83149 5.82616 8.49999 5.00001 8.5C4.17158 8.50001 3.50001 7.82844 3.5 7.00001L5 7C3.5 7.00001 3.5 6.99932 3.5 6.99861L3.5 6.99709L3.50001 6.99364L3.50006 6.9852L3.50031 6.96224C3.50058 6.94428 3.50105 6.92102 3.50191 6.89281C3.50362 6.83644 3.50684 6.76006 3.51292 6.66648C3.52504 6.47982 3.54868 6.22193 3.59504 5.91593C3.68662 5.31148 3.87259 4.48037 4.25943 3.6293C4.64735 2.77588 5.25886 1.8563 6.22231 1.14977Z" fill=" "/>
<path d="M10 15C11.3807 15 12.5 16.1193 12.5 17.5C12.5 18.8808 11.3807 20.0001 9.99997 20.0001C8.61927 20 7.5 18.8807 7.5 17.5C7.5 16.1193 8.61931 15 10 15Z" fill=" "/>
</g>
<defs>
<clipPath id="clip0_107_4139">
<rect width="20" height="20" fill="white"/>
</clipPath>
</defs>
</svg>
