<svg width="20" height="20" viewBox="0 0 20 20" fill="none" xmlns="http://www.w3.org/2000/svg">
<g clip-path="url(#clip0_107_3858)">
<path fill-rule="evenodd" clip-rule="evenodd" d="M12.6719 0.158998C13.308 0.477649 13.6327 1.19923 13.4494 1.8866L11.9524 7.5001H15.5C16.0749 7.5001 16.5992 7.82864 16.8499 8.34596C17.1006 8.86328 17.0336 9.47837 16.6774 9.92957L9.17736 19.4296C8.73655 19.9879 7.96418 20.1599 7.32815 19.8412C6.69212 19.5226 6.36739 18.801 6.55068 18.1136L8.04761 12.5001H4.50001C3.92515 12.5001 3.40085 12.1716 3.15016 11.6542C2.89947 11.1369 2.96648 10.5218 3.32269 10.0706L10.8227 0.570633C11.2635 0.0122781 12.0359 -0.159653 12.6719 0.158998Z" fill=" "/>
</g>
<defs>
<clipPath id="clip0_107_3858">
<rect width="20" height="20" fill="white"/>
</clipPath>
</defs>
</svg>
