<svg width="20" height="20" viewBox="0 0 20 20" fill="none" xmlns="http://www.w3.org/2000/svg">
<g clip-path="url(#clip0_107_3925)">
<path fill-rule="evenodd" clip-rule="evenodd" d="M18.5 6.5C19.3284 6.5 20 7.17157 20 8V18.5C20 19.3284 19.3284 20 18.5 20H7C6.17157 20 5.5 19.3284 5.5 18.5C5.5 17.6716 6.17157 17 7 17H17V8C17 7.17157 17.6716 6.5 18.5 6.5Z" fill=" "/>
<path fill-rule="evenodd" clip-rule="evenodd" d="M-0.000488281 13V2C-0.000488281 0.89543 0.894939 0 1.99951 0H12.9995C14.1041 0 14.9995 0.89543 14.9995 2V13C14.9995 14.1046 14.1041 15 12.9995 15H1.99951C0.894939 15 -0.000488281 14.1046 -0.000488281 13ZM8.74116 10.4939C8.8516 10.4035 9.00592 10.2749 9.18679 10.1179C9.54481 9.8072 10.0236 9.37099 10.4751 8.89078C10.9076 8.43082 11.3993 7.843 11.6981 7.23438C11.9485 6.7244 12.3728 5.5191 11.336 4.57701C10.9145 4.19405 10.2714 3.90746 9.50938 4.02779C8.87218 4.1284 8.43678 4.47559 8.2009 4.70127C7.93052 4.95996 7.6974 5.28008 7.49993 5.60255C7.3025 5.28013 7.06942 4.96007 6.79908 4.70143C6.5632 4.47574 6.1278 4.12854 5.49058 4.02794C4.7285 3.90763 4.08546 4.19425 3.66404 4.57718C2.6273 5.51923 3.05148 6.72448 3.30183 7.23449C3.60059 7.8431 4.09236 8.43091 4.52481 8.89085C4.97629 9.37104 5.45502 9.80723 5.81302 10.1179C5.99388 10.2749 6.14819 10.4035 6.25863 10.4939C6.25863 10.4939 6.89287 11 7.50009 11C8.10731 11 8.74116 10.4939 8.74116 10.4939Z" fill=" "/>
</g>
<defs>
<clipPath id="clip0_107_3925">
<rect width="20" height="20" fill="white"/>
</clipPath>
</defs>
</svg>
