<svg viewBox="0 0 20 20" fill="none" xmlns="http://www.w3.org/2000/svg">
<g clip-path="url(#clip0_140_3493)">
<path fill-rule="evenodd" clip-rule="evenodd" d="M0 2V13C0 14.1046 0.895431 15 2 15H13C14.1046 15 15 14.1046 15 13V2C15 0.89543 14.1046 0 13 0H2C0.89543 0 0 0.895431 0 2ZM8.5 4.5C8.5 3.94772 8.5 3 7.5 3C6.5 3 6.5 3.94772 6.5 4.5V6.5H4.5C3.94772 6.5 3 6.5 3 7.5C3 8.5 3.94772 8.5 4.5 8.5H6.5V10.6453C6.5 11.1976 6.5 12 7.5 12C8.5 12 8.5 11.1976 8.5 10.6453V8.5H10.5C11.0523 8.5 12 8.5 12 7.5C12 6.5 11.0523 6.5 10.5 6.5H8.5V4.5Z" fill=""/>
<path fill-rule="evenodd" clip-rule="evenodd" d="M18.5 6.5C19.3284 6.5 20 7.17157 20 8V18.5C20 19.3284 19.3284 20 18.5 20H7C6.17157 20 5.5 19.3284 5.5 18.5C5.5 17.6716 6.17157 17 7 17H17V8C17 7.17157 17.6716 6.5 18.5 6.5Z" fill=""/>
</g>
<defs>
<clipPath id="clip0_140_3493">
<rect width="20" height="20" fill=""/>
</clipPath>
</defs>
</svg>
