<svg width="20" height="20" viewBox="0 0 20 20" fill="none" xmlns="http://www.w3.org/2000/svg">
<g clip-path="url(#clip0_107_3956)">
<path fill-rule="evenodd" clip-rule="evenodd" d="M0 3C0 1.89543 0.89543 1 2 1L18 1C19.1046 1 20 1.89543 20 3C20 4.10457 19.1046 5 18 5L2 5C0.89543 5 0 4.10457 0 3Z" fill=" "/>
<path fill-rule="evenodd" clip-rule="evenodd" d="M6 17C6 15.8954 6.89543 15 8 15L12 15C13.1046 15 14 15.8954 14 17C14 18.1046 13.1046 19 12 19H8C6.89543 19 6 18.1046 6 17Z" fill=" "/>
<path fill-rule="evenodd" clip-rule="evenodd" d="M2 10C2 8.89543 2.89543 8 4 8L16 8C17.1046 8 18 8.89543 18 10C18 11.1046 17.1046 12 16 12L4 12C2.89543 12 2 11.1046 2 10Z" fill=" "/>
</g>
<defs>
<clipPath id="clip0_107_3956">
<rect width="20" height="20" fill="white"/>
</clipPath>
</defs>
</svg>
