<svg width="20" height="20" viewBox="0 0 20 20" fill="none" xmlns="http://www.w3.org/2000/svg">
<g clip-path="url(#clip0_107_3918)">
<path fill-rule="evenodd" clip-rule="evenodd" d="M0 2C0 0.89543 0.89543 0 2 0H8C9.10457 0 10 0.89543 10 2C10 3.10457 9.10457 4 8 4H4V16H8C9.10457 16 10 16.8954 10 18C10 19.1046 9.10457 20 8 20H2C0.89543 20 0 19.1046 0 18V2Z" fill=" "/>
<path d="M13.926 4.61422C14.4865 4.38205 15.1317 4.51039 15.5607 4.93938L19.5607 8.93938C20.1464 9.52517 20.1464 10.4749 19.5607 11.0607L15.5607 15.0607C15.1317 15.4897 14.4865 15.618 13.926 15.3859C13.3655 15.1537 13 14.6067 13 14V12H8C6.89543 12 6 11.1046 6 10C6 8.89543 6.89543 8 8 8H13V6.00004C13 5.39335 13.3655 4.8464 13.926 4.61422Z" fill=" "/>
</g>
<defs>
<clipPath id="clip0_107_3918">
<rect width="20" height="20" fill="white"/>
</clipPath>
</defs>
</svg>
