<svg width="20" height="20" viewBox="0 0 20 20" fill="none" xmlns="http://www.w3.org/2000/svg">
<g clip-path="url(#clip0_107_3884)">
<path d="M2.49989 12.5C1.11918 12.5 -0.000110347 11.3807 -0.000110558 10C-0.0001106 8.61929 1.11918 7.5 2.49989 7.5C3.8806 7.5 4.99989 8.61929 4.99989 10C4.99989 11.3807 3.8806 12.5 2.49989 12.5Z" fill=" "/>
<path d="M9.99989 12.5C8.61918 12.5 7.49989 11.3807 7.49989 10C7.49989 8.61929 8.61918 7.5 9.99989 7.5C11.3806 7.5 12.4999 8.61929 12.4999 10C12.4999 11.3807 11.3806 12.5 9.99989 12.5Z" fill=" "/>
<path d="M17.4999 12.5C16.1192 12.5 14.9999 11.3807 14.9999 10C14.9999 8.61929 16.1192 7.5 17.4999 7.5C18.8806 7.5 19.9999 8.61929 19.9999 10C19.9999 11.3807 18.8806 12.5 17.4999 12.5Z" fill=" "/>
</g>
<defs>
<clipPath id="clip0_107_3884">
<rect width="20" height="20" fill="white"/>
</clipPath>
</defs>
</svg>
