<svg width="20" height="20" viewBox="0 0 20 20" fill="none" xmlns="http://www.w3.org/2000/svg">
<g clip-path="url(#clip0_107_3881)">
<path fill-rule="evenodd" clip-rule="evenodd" d="M-0.000186136 10C-0.000186221 8.89543 0.895244 8 1.99981 8L7.99981 8L7.99981 2C7.99981 0.895432 8.89524 1.35381e-06 9.99981 1.01663e-06C11.1044 8.05901e-07 11.9998 0.895431 11.9998 2L11.9998 8L17.9998 8C19.1044 8 19.9998 8.89543 19.9998 10C19.9998 11.1046 19.1044 12 17.9998 12H11.9998L11.9998 18C11.9998 19.1046 11.1044 20 9.99982 20C8.89525 20 7.99982 19.1046 7.99982 18L7.99982 12L1.99981 12C0.895244 12 -0.000186221 11.1046 -0.000186136 10Z" fill="#F5F5F5"/>
</g>
<defs>
<clipPath id="clip0_107_3881">
<rect width="20" height="20" fill="white"/>
</clipPath>
</defs>
</svg>
