<svg width="20" height="20" viewBox="0 0 20 20" fill="none" xmlns="http://www.w3.org/2000/svg">
<g clip-path="url(#clip0_107_3908)">
<path fill-rule="evenodd" clip-rule="evenodd" d="M10 0C11.1046 0 12 0.89543 12 2L12 11.5C12 12.6046 11.1046 13.5 10 13.5C8.89543 13.5 8 12.6046 8 11.5L8 2C8 0.89543 8.89543 0 10 0Z" fill=" "/>
<path d="M10 15C11.3807 15 12.5 16.1193 12.5 17.5C12.5 18.8807 11.3807 20 10 20C8.61929 20 7.5 18.8807 7.5 17.5C7.5 16.1193 8.61929 15 10 15Z" fill=" "/>
</g>
<defs>
<clipPath id="clip0_107_3908">
<rect width="20" height="20" fill="white"/>
</clipPath>
</defs>
</svg>
