<svg width="20" height="20" viewBox="0 0 20 20" fill="none" xmlns="http://www.w3.org/2000/svg">
<g clip-path="url(#clip0_107_3878)">
<path fill-rule="evenodd" clip-rule="evenodd" d="M0.5856 0.585787C1.36665 -0.195262 2.63298 -0.195262 3.41403 0.585787L9.99981 7.17157L16.5856 0.585786C17.3666 -0.195262 18.633 -0.195262 19.414 0.585786C20.1951 1.36683 20.1951 2.63316 19.414 3.41421L12.8282 10L19.414 16.5858C20.1951 17.3668 20.1951 18.6332 19.414 19.4142C18.633 20.1953 17.3666 20.1953 16.5856 19.4142L9.99981 12.8284L3.41403 19.4142C2.63298 20.1953 1.36665 20.1953 0.585601 19.4142C-0.195448 18.6332 -0.195448 17.3668 0.585601 16.5858L7.17139 10L0.5856 3.41421C-0.195449 2.63317 -0.195449 1.36684 0.5856 0.585787Z" fill="#F5F5F5"/>
</g>
<defs>
<clipPath id="clip0_107_3878">
<rect width="20" height="20" fill="white"/>
</clipPath>
</defs>
</svg>
